<?xml version="1.0" encoding="utf-8"?>
<!-- Generator: Adobe Illustrator 19.2.1, SVG Export Plug-In . SVG Version: 6.00 Build 0)  -->
<svg version="1.1" id="layer" xmlns="http://www.w3.org/2000/svg" xmlns:xlink="http://www.w3.org/1999/xlink" x="0px" y="0px"
	 viewBox="0 0 652 652" style="enable-background:new 0 0 652 652;" xml:space="preserve">
<style type="text/css">
	.st0{fill:#E40712;}
</style>
<g>
	<path class="st0" d="M288.8,283.3c0-0.9,0.2-2.4,0.5-5s2-10.1,8.6-14.3c-0.3,0-0.8-0.2-1.1-0.2c-0.9,0-3.6-0.2-7.4,1.2
		c1.5-2.3,7.1-6,9.2-7.1c0.2-0.2,0.5-0.3,0.6-0.3c-2.4-7.7-7.5-14-14.7-17.7c-4.5-2.4-9.2-3.6-15.5-3.8l0,0h-12.6
		c-10.1,0-14.7-0.2-18.3-0.9c-3-0.8-5.7-2.4-5.7-2.4l-0.8-0.5l0.2,0.9c0,0.3,0.8,7.1,8.9,13.1c1.5,1.2,2.7,2.3,2.7,6.2V289
		c0,3.9-0.8,5-2.6,6c-2,1.2-6,3.5-6,3.6l-1.4,0.8h32.9c9.2,0,15-1.5,21.2-5.7c1.2-0.8,2.3-1.7,3.2-2.4c-0.6-4.7,0.2-8.9,0.8-11.3
		C291.4,279.8,289.7,281.3,288.8,283.3z M267.8,284h-7.1v-32.4h7.1c9.3,0,14.6,5.9,14.6,16.2C282.4,278.2,277.1,284,267.8,284z
		 M359,292.1c0.6-1.2,0.9-2.7,0.9-4.2c0-1.5-0.5-3-1.1-4.2l1.8,0.3c1.2,0.2,3.5,1.7,3.5,3.9C364.1,290.6,361.4,291.8,359,292.1z
		 M393.8,293.6c-6.3,4.2-12,5.7-21.2,5.7h-0.3c1.5-1.8,2.3-4.2,2.3-6.6c0-3.5-1.7-6.6-4.4-8.7h3.9c9.3,0,14.6-5.9,14.6-16.2
		c0-10.4-5.3-16.2-14.6-16.2h-7.1v4.1c-1.1-0.2-2-0.3-3-0.3c-1.7,0-3.6,0.3-4.1,0.6c2-1.7,4.2-2.4,5.7-2.7
		c-6.6-1.5-12.8,2.3-13.7,3.3c0.8-1.7,2.3-3.2,3.3-4.2c-2.1,0.8-4.1,1.8-5.7,2.9v-2.7c0-4.1-1.1-5.1-2.7-6.2
		c-8.1-5.9-8.9-12.8-8.9-13.1l-0.2-0.9l0.8,0.5c0,0,2.7,1.8,5.7,2.4c3.5,0.8,8.3,0.9,18.3,0.9h12.6l0,0c6.3,0.3,11,1.4,15.5,3.8
		c10.2,5.3,16.2,15.6,16.2,27.6c0,7.4-2.4,14.6-6.6,19.7C398.8,289.7,396.5,291.8,393.8,293.6z M362,281.2c-2.3,0-4.7,0.5-4.7,0.5
		c-0.5-0.5-3.5-2.7-4.8-3c2.4,2.6,1.7,5.3,1.1,6.2c-0.5,0.8-1.4,1.2-2.1,1.2c-0.6,0-1.2-0.2-1.8-0.6v-14.7c0.6-0.8,1.2-1.7,2-2.4
		c1.7-2,4.4-3.2,7.1-3.2c1.7,0,3.3,0.5,4.4,1.4l0.9,0.6l0.8-0.8c0.5-0.5,1.5-0.9,2.6-1.4v17.3C365.6,281.5,363.9,281.2,362,281.2z
		 M359,260.8c-5.6-0.8-14.1,3-18.5,8.4c0.9-3.6,4.8-9.5,9.6-12.2c0,0-2.4,3-1.4,3.5c1.5,0.8,5.4-5.4,10.5-5.6c0,0-3.8,1.8-3,3.2
		c0.6,0.9,3.2-1.2,7.5-1.2c5.4,0,10.2,3.3,12.5,5.9c-3.8-1.1-10.8,0.8-12.9,2.6c-3.2-2.4-9.3-2.1-12.8,2c-4.4,5-7.1,10.8-7.8,12.6
		c-1.5-1.2-2.9-2.3-3.8-3c-0.8-0.6-1.5-0.9-2.3-1.2C340.8,269.9,349.2,261.2,359,260.8z M300.4,243.9c-0.6-7.1,2.7-11,4.2-12.6
		c3.3-3.5,7.8-5.4,14.6-5.1c10.5,0.6,15.6,7.8,15.6,15.5c0,4.1-2.1,9.5-5.1,12.9c-0.2-0.2-0.5-0.5-0.6-0.6c-2-1.8-4.8-4.1-6.6-6.8
		c3.6-5.3,2.1-13.5-4.4-13.5c-4.1,0-7.4,4.2-6,9.3c-0.6,2.3-0.9,5.3-0.5,7.5c-4.7-2.4-6.2-5.6-7.1-8.4c-1.2,2.4-2,5.7-1.1,8.9
		C303.6,251.3,300.9,248.9,300.4,243.9z M303.1,256.7c-0.5,1.7-6.6,3.5-9.6,6.5c4.5-0.9,6.6-0.2,7.4,1.7c0.5,1.4-0.2,3.2-0.5,5.3
		c1.5-1.7,6.6-5.1,10.4-5.9c-0.9-0.3-3.2-0.8-4.1-0.8c2.7-3.2,8.7-4.2,12-3.5c-2.1-0.2-6.3,1.1-8,2.4c1.5,0.3,2.9,0.6,4.1,1.1
		c-2,0.8-4.5,3.2-5.4,5.7c2.6-1.8,7.8-1.4,8.7,2.4c0.6,2.6-1.2,4.8-2.1,5.3c0.8,0.2,2.6,0,3.3-0.5c-0.3,1.1-1.8,2.9-2.9,3.2
		c2.7,0,6.6-1.8,7.7-4.4c0,0-1.7,0.6-2.4-0.2c-0.8-0.8,0.3-4.1,0.3-4.1s-1.1,1.4-2,0.6c-0.9-0.9,0.3-3.9,0.8-4.5
		c-0.9-0.3-3.3-0.6-4.4-0.5c3-1.1,9.8-1.7,10.5-0.3c0.6,1.1-0.9,3.2-0.9,3.2c1.2-0.2,4.7,0,5.9,1.4c1.2,1.5,0.5,3.5,0.5,3.5
		c2.7-1.4,5.1-5.6,4.5-9.8c-0.3,0.9-1.5,2.3-2.7,2.6c0.2-1.4-0.9-2.1-1.8-2.4c0.5-2.6-0.6-5.9-4.4-9.5c-3.2-3.2-9.2-7.4-8.9-12.9
		c-0.9,1.2-1.7,4.7-0.8,6.6c2.6,3,8.1,6.3,9.5,11.4c-2.4-6-14.1-10.7-13.7-18.9c-1.5,1.5-2.4,7.4-1.2,10.4c2.3,1.4,4.2,3.6,4.5,5.7
		c-2.1-4.8-10.7-5.7-13.1-11.4c-0.6,2.1-0.3,4.7,0.9,6.3c0,0-2.1-0.8-6.6-0.6C300.2,252.3,303.4,255,303.1,256.7z M327.4,263.6
		c-2.6,0-3.3-2-3.9-4.1C326.5,260.8,327.4,263.6,327.4,263.6z M360.2,302.8c1.8,1.7,6.2,2.9,8.4,1.8c-1.4,2.4-7.7,5.7-13.5,4.2
		c-5.6-1.5-8.1-6.8-8.1-10.2c-2.7,2.7-2,6.9,0,8.7c-2.1-0.6-5.4-2.9-6-6.9c-0.5-3.5,1.5-7.5-2.1-10.7c-2.1-2-5.6-4.7-7.7-6.3
		c-4.5-3.5-2.9-6.2-3.8-8c-0.8-1.5-2.7-2.3-3.8-3.6c-1.2-1.4-1.1-3.3-0.5-4.4c-0.2,1.5,0.9,2.7,2.4,3.3c1.7,0.6,3,0.2,4.5,0.9
		c1.7,1.1,0.9,3.6,2.1,4.7c1.1,0.8,3.9-0.3,6.2,1.7c2.4,2,7.7,6.3,9.9,8.1c4.1,3.3,8.3-0.5,6.9-4.4c4.2,2.4,4.7,9.3,1.2,11.7
		c3.3,0.8,9.2-0.8,9.2-5.4c0-2.9-2.7-5-4.5-5.3c6.8-0.6,12.6,4.1,12.6,10.1C373.4,298.9,367.2,303.7,360.2,302.8z M337.8,290.5
		c0.2,0.2,0.3,0.3,0.5,0.5c-3.6,7.4-10.4,16.8-23.3,16.8c-4.7,0-8.9-1.7-11.9-3.9c-1.1-0.8-2-1.7-2.7-2.7l0,0l0,0
		c-0.5-0.6-0.9-1.1-1.4-1.7c-0.6-0.8-1.1-0.8-1.4-0.3c-0.6,0.9,0.5,3.8,0.5,3.8c-10.2-9.6-5-23.7-4.8-24.3c0.6-1.8,0-2.1-0.6-1.8
		c-0.9,0.3-2,1.8-2,1.8c0.8-8.6,8.7-13.8,8.7-13.8l0.2,0.2c0.9,1.4-0.5,3-0.6,8.4c1.5-2.1,7.4-6.2,10.7-7.4c-1.1,1.4-2,3.3-2,6.2
		c0,0,2.4-2.7,5.4-2.7c0.8,0,1.5,0.2,2.1,0.5c-11.4,11.1-6.6,24.9,3,24.9c5.4,0,10.8-6,13.1-10.1C333,286.4,335.8,288.8,337.8,290.5
		z"/>
	<path d="M353.1,323.4c-26.6,0-53.3,18.2-53.3,47.2c0,30,26.6,46,53,46c26.7,0,53.5-15.8,53.5-46
		C406.3,340.8,379.7,323.4,353.1,323.4z M352.8,396.1c-11.7,0-26.1-8.9-26.1-25.5c0-17.1,13.5-26.3,26.3-26.3
		c11.7,0,26.6,8.1,26.6,26.6C379.5,388.4,364.7,396.1,352.8,396.1z"/>
	<path d="M475.4,326.2h36.8l-6.9,7.8v79.9h-20c-3.8-11.9-42.1-42.2-45.5-52.1h-0.3v44.5l6.9,7.7h-36.5l6.8-7.8V334l-6.9-8h29.6
		c2.7,8.9,37.2,34.2,42.4,47.8h0.3V334L475.4,326.2z"/>
	<path d="M564.1,324.3c-19.4,0-37.5,1.2-47.2,2l6.9,7.7v72.4l-6.9,7.7c9.8,0.8,29,2,48.4,2c39.5,0,55.4-19.4,55.4-45.8
		C620.8,342.6,599,324.3,564.1,324.3z M565,395.9c-6,0-11.4-0.3-15-0.8v-50c4.1-0.5,7.2-0.9,13.8-0.9c17,0,30,7.2,30,25.5
		C593.9,387.4,582,395.9,565,395.9z"/>
	<polygon points="267.4,406.1 274.1,413.8 234.2,413.8 241.4,406.1 241.2,388 199.9,326.2 242,326.2 236,333 255.6,367.8 
		255.9,367.8 275.2,333 269.5,326.2 308.5,326.2 267.2,388.3 	"/>
	<polygon points="208.2,394 195,413.8 195.1,413.8 118.8,413.8 125.7,406.1 125.7,333.9 118.8,326.2 187.8,326.1 187.8,326.2 
		201,345.9 151.9,345.9 151.9,359.9 186.7,359.9 173.5,379.7 173.5,379.9 151.9,379.7 151.9,394.1 	"/>
	<path d="M109.1,375.3c-3.3-3.2-7.7-5.6-13.4-7.2c2.3-0.6,4.4-1.5,6.3-2.7c2-1.2,3.5-2.4,4.8-3.9s2.4-3,3-4.7c0.8-1.5,1.1-3,1.1-4.5
		v-2.9c0-3.5-0.8-6.8-2.4-9.6c-1.7-2.9-3.9-5.4-6.9-7.4c-3-2.1-7.2-3.6-11.4-4.8c-4.2-1.1-8.9-1.7-14-1.7H35.6h-4.2h-7.8l7.8,8.1
		v27.6H20.8l10.7,13.7v30.2l-7.8,8.1h7.8h4.2h43.3c10.4,0,19.4-1.8,25.7-5.6c6.3-3.8,9.3-9.2,9.3-16.5v-5
		C113.9,382.3,112.2,378.5,109.1,375.3z M56.9,342.3h14.1c4.1,0,7.4,0.6,9.9,1.8c2.6,1.2,3.8,3.5,3.8,6.8v2.9c0,2.6-0.9,4.5-2.9,6
		c-2,1.5-4.5,2.3-7.8,2.3H56.9V342.3z M87.7,389.2c0,1.8-0.3,3.3-1.1,4.4c-0.8,1.1-1.7,2-2.9,2.7c-1.2,0.6-2.6,1.1-4.2,1.4
		c-1.7,0.2-3.3,0.3-5,0.3H56.9v-21.2h17.9c3.3,0,6.2,0.8,8.9,2.3c2.6,1.5,3.9,3.5,3.9,6v4.2H87.7z"/>
</g>
</svg>
