<?xml version="1.0" encoding="UTF-8"?>
<svg id="Ebene_7" data-name="Ebene 7" xmlns="http://www.w3.org/2000/svg" viewBox="0 0 137.98 116.24">
  <path d="M80.93,103.53l.3-.15"/>
  <path d="M66.44,58.51c-.28.17-.57.36-.85.57.29-.21.57-.39.85-.57Z"/>
  <path d="M120.58,40.18h.01s0,0,0,0c0,0,0,0-.01,0Z"/>
  <path d="M53.63,60.95c-.69-.36-1.32-.34-1.79.09-.58,2.28-1.89,6.92-2.63,9.13l-13.7-43.84,1.83-3.08h-16.87l2.79,4.71v59.89l-2.79,5.12h16.87l-2.79-5.12v-28.46l10.36,33.58h8.59c1.27-4.12,6.5-20.83,7.32-24.72-2.47-2.21-5.89-5.71-7.19-7.29Z"/>
  <path d="M67.15,66.47c.1.56.32,1.09.64,1.54l.43-.68c-.3-.25-.57-.52-.84-.8l-.23-.05Z"/>
  <path d="M71.71,69.65c.37-.07.71-.2,1.04-.36-.31-.02-.62-.1-.92-.17l-.12.53Z"/>
  <path d="M66.13,64.77c.32.65.77,1.22,1.25,1.75l1.18.27-.34.54c.52.43,1.08.8,1.68,1.1-.04-.02-.08-.04-.12-.06l-1.01.63c.45.32.98.54,1.54.64l-.26-1.15s-.07-.04-.11-.05c.6.29,1.23.52,1.88.68l.2-.89,1.24.78c-.16.11-.34.19-.51.28.75.11,1.54.1,2.29,0l-.18-.29c.63-.8,1.06-1.72,1.15-2.78l1.95-.44-1.95-.44c-.09-1.06-.52-1.98-1.15-2.78.19-.3.87-1.37,1.07-1.7-.42.26-1.28.81-1.7,1.07-.77-.64-1.72-1.05-2.78-1.14l-.44-1.97-.44,1.97c-1.05.09-2,.51-2.76,1.15l-1.71-1.08,1.08,1.71c-.52.62-.88,1.38-1.05,2.21ZM74.25,63.52c.32.46.55.99.65,1.56l-1.43-.32.78-1.24ZM74.9,66.47c-.1.57-.33,1.1-.65,1.56l-.78-1.24,1.43-.32ZM73.27,62.54l-1.24.78-.32-1.42c.57.1,1.1.32,1.56.64ZM70.32,61.9l-.32,1.42-1.22-.77c.45-.32.98-.54,1.54-.64ZM68.56,64.76l-1.41.32c.1-.56.32-1.09.64-1.54l.77,1.22Z"/>
  <path d="M121.87,23.97c-1.38-1.17-3.4-1.77-5.2-1.6,3.94,3.83-10.07,4.5-4.23,1.33-6.49-3.75-14.11-4.53-20.65-8.07-2.84-1.67-4.99-3.91-7.48-6.06-.93,2.52.8,6.91,2.98,8.47,1.53.76,2.93,1.81,4.42,2.66,3.25,1.72,3.34,5.89,5.88,8.29.56.58.73,1.23.66,1.96-.06-.52-.29-1.01-.71-1.46-1.56-1.64-2.57-3.63-3.51-5.65-.2-.43-.44-.59-.93-.59-.14,0-.29,0-.43,0h0s-10.65,0-10.65,0c-.47,0-.85.38-.85.85v11.86s-.01,0-.02,0c-.05,3.3.05,7.72-.03,10.91-1.66-.95-4.2-2.27-5.95-3.12v-7.9s.04,0,0,0v-7.9l2.79-4.71h-16.87l1.81,3.06c-.86,2.77-3.79,12.17-3.98,12.76-2.83.36-3.81,2.1-4.87,4.53-1.26,2.58-2.98,6.15-3.11,6.4-1.6,2.63,1.44,6.8,2.65,8.74,1.35,2.11,4.44,6.46,10.18,10.77,1.81,3.37,4.93,4.34,7.76,4.72.46.06,0,.11-.32.15-2.18.12-4.45-.6-7.33-2.69v16.15l-2.79,5.12h16.87l-2.79-5.12v-8.53s.05,0,0,0h0c.1-.53-.01-2.45.03-3.35,4.48,1.91,10.43,3.45,15.59,3.95-1.84.5-5.58-.12-7.79-.56-1.24-.23-2.01,1.04-1.83,2.15.01.62.03,3.71.05,6.52s2.24,4.94,4.97,4.94h23.45c2.8,0,5.05-2.31,4.97-5.11h0v-34.85c0-2.77-2.26-5.01-5.03-4.97l-1.8.02s-9.84-.01-13.1,0l2.67,8.42c1.1,1.92,3.21,3.26,5.4,3.13.6.53.42,1.24.42,2.38v17.68c0,.94-.77,1.71-1.71,1.71h-6.59c-.89,0-1.55-.59-1.97-1.3.02-.09.04-.17.08-.19,1.21-.4,2.62-1.03,3.04-2.33,1.19-2.43,2.93-6.11,4.08-8.41,1.55-3.68-3.12-10.4-7.44-13.95v-20.38c1.2-.01,2.37,0,3.54,0-.66.78-1.36,1.32-2.2,2.08,3.3-.78,6.7-2.34,10.14-1.74,2.3.53,2.02,2.38,1.08,3.54,2.75-.2,4.6,3.3,2.52,5.26-.54.52-1.16.96-1.78,1.38,4.71.96,8.85.02,12.16-3.58-1.72-.2-4.05-.19-5.29-1.58-.15-.16-.12-.45-.12-.45-.06-.56.52-1.17,1.05-1.56-1.59-.38-3.71-.74-4.05-2.63,3.21-.46,7.09-1.51,9.35,1.55,1.06.93.93,2.03,1.25,3.26.05-.01.09-.02.14-.03.31-2.85-1.04-6.4-4.02-7.23-2.19-.7-4.99-.23-6.47-2.37-.09-.14-.19-.41-.14-.46.39-.36.77-.82,1.25-.97.57-.17.81.64,1.12,1.01,1.13-.73,2.04-2.12,3.53-1.06,1.17-1.27,2.76-1.72,4.38-1.27,2.72.42,2.28,3.26,1.67,5.25,3.21-2.22,2.35-6.68.11-9.21ZM88.68,14.3c-1.94-1.27-1.23-1.19-3.01-1.94-.45-.6-1.07-1.14-1.16-1.92.04,0,.08,0,.12-.01h0c2.25,1.89,4.49,3.78,6.72,5.66-.09-.02-2.53-1.72-2.67-1.78ZM77.45,46.57h-.03c-1.71-.71-1.83.58-2.24,1.46.05-.45-.21-2.25.22-2.66,1.74-.62,5.39,1.71,5.68,3.55.11,3.72,0,12.8.04,14.42-.22-2.55-3.51-6.33-5.82-7.6-.26-.26-.12-1.37-.12-1.49,2.12,1.18,5.8,4.64,5.59-.02.02-4.06.6-5.85-3.33-7.67ZM60.07,58.23l-.59,1.58-.59-1.58-1.58-.59,1.58-.59.59-1.58.59,1.58,1.58.59-1.58.59ZM80.26,72.49c.37-.14,1.22-.45,1.58-.59l.59-1.59.59,1.59,1.58.59-1.58.59-.59,1.58-.59-1.58c-.36-.13-1.22-.45-1.58-.59ZM92.65,58.72c0,.77.52,5.63.72,6.34,0,0,0,0,0,.02.34,1.23.48,1.9,1.28,2.85-.62.09-1.25.05-2,0v-9.2ZM97.84,66.47c.84-3.21-3.06-7.25-4.93-9.77,2.83,2.78,7.09,7.37,6.79,11.33-.78,2.37-3.81,7.88-4.47,9.49.24-1.9,1.68-4.97,2.07-7.02-.13-.41-.58-.02-.94.02-.5.05-.38.25-.62.62-1.09,1.86-1.72,3.35-3.2,4.5-3.01,2.72-6.57,1.51-10.35.79,3.64-.68,7.25-2.81,7.73-6.17,0-.16-.09-.26-.25-.3-2.78-.69-5.85-1.95-8.73-3.27-.25-.09-.55-.18-.65.17-.29,3.19-2.56,6.27-6.47,6.93-.07-.03-.13-.06-.2-.08,12.15-5.52,3.46-21.82-7.2-15.19,8.61-5.19,16.05,7,8.73,10.81-.02,0-.01.02-.02.02v.86c-.35-.22-.71-.46-.85-.5-.35.02-.91.59-1.35.7-.4.2-1.03.28-1.4.39-.19.02-.38,1.38-.5,1.77-.03-.01-.06-.03-.09-.04-.1-.38-.29-1.43-.4-1.65-.14-.19-.74-.17-1.13-.34-.36-.12-.7-.28-1.02-.48-.35-.2-.56-.49-.8-.31-.18.11-.52.33-.82.52-.1-.06-.21-.13-.31-.19.31-.45.85-.98.48-1.38-.58-.7-.7-1.66-1.02-2.46-.28-.13-1.83-.41-1.81-.45.47-.23,1.61-.18,1.97-.61-.34-1.67-1.33-3.07-1.07-5.15,0-.18-.03-.26-.12-.19-1.93,2.2-2.67,5.15-1.81,7.88-1.71-3.6-.75-8.07,2.45-10.84l-1.02-.88c-2.23-1.94-4.13-3.83-5.68-5.75-2.54,2.07-2.99,7.44-1.8,11.16-3.08-4.29-5-10.84-.61-14.95-.09-.7-.52-1.51-.57-2.25-.02-.05-.2-.54-.22-.59-1.43,2.57-2.47,5.82-3.82,8.41-.01-2.09,1.17-4.83,2.03-6.95,1.9-3.48,1.18-4.2,4.03-4.83,1.1-.11.26.13-.05.73-1.96,6.18,5.06,12.08,9.12,15.63,6.42-2.51,12.69,1.41,13.41,8.37.14.37.44.62.76.76,3.83,1.35,13.59,6.49,16.69.74ZM103.74,22.61c.8-.32,2.24.19,4.34,1.41-.91.23-1.77-.66-2.64-.06-.24-.78-.64-1.24-1.7-1.35ZM112.37,39.27c-.02.26,0,.48.06.68,0,0-.02.54,1.13,1.41l.42.3c-.81.17-3.06-1.58-1.6-2.38ZM109.6,36.2c.34.55.69.71,1.03,1.18-.71-.2-1.64-1.2-1.65-1.99-.11-.7.62-.26.98-.21-.65.07-.82.27-.35,1.03ZM109.95,31.72c.88,1.17,2.22.96,3.55,1.2,1.73.43,4.26.34,5.12,2.17-2.44-1.65-5.41-1.73-8.27-1.95-1.53-.06-1.44-1.51-1.13-2.63.06,0,.11-.02.16-.04.2.25.38.98.57,1.24ZM108.98,25.88c-1.12.01-2.4-.59-3.13-1.59h0c1.25.37,3.32.04,4.01,1.28-.04.46-.55.31-.88.31ZM114.29,28.41c.35-.42.86-.44,1.48,0h-1.48ZM121.69,25.54c-.81-.98-1.84-1.64-3.06-2.02-.35-.11-.82-.09-.85-.63,2.36-.28,5.11,1.94,5.23,4.36-.49-.63-.88-1.19-1.31-1.71Z"/>
</svg>
