<?xml version="1.0" encoding="UTF-8" standalone="no"?>
<!DOCTYPE svg PUBLIC "-//W3C//DTD SVG 1.1//EN" "http://www.w3.org/Graphics/SVG/1.1/DTD/svg11.dtd">
<svg width="100%" height="100%" viewBox="0 0 138 117" version="1.1" xmlns="http://www.w3.org/2000/svg" xmlns:xlink="http://www.w3.org/1999/xlink" xml:space="preserve" xmlns:serif="http://www.serif.com/" style="fill-rule:evenodd;clip-rule:evenodd;stroke-linejoin:round;stroke-miterlimit:2;">
    <path d="M80.93,103.53L81.23,103.38" style="fill:none;fill-rule:nonzero;"/>
    <path d="M66.44,58.51C66.16,58.68 65.87,58.87 65.59,59.08C65.88,58.87 66.16,58.69 66.44,58.51Z" style="fill:white;fill-rule:nonzero;"/>
    <path d="M120.58,40.18L120.59,40.18L120.58,40.18Z" style="fill:white;fill-rule:nonzero;"/>
    <path d="M53.63,60.95C52.94,60.59 52.31,60.61 51.84,61.04C51.26,63.32 49.95,67.96 49.21,70.17L35.51,26.33L37.34,23.25L20.47,23.25L23.26,27.96L23.26,87.85L20.47,92.97L37.34,92.97L34.55,87.85L34.55,59.39L44.91,92.97L53.5,92.97C54.77,88.85 60,72.14 60.82,68.25C58.35,66.04 54.93,62.54 53.63,60.96L53.63,60.95Z" style="fill:white;fill-rule:nonzero;"/>
    <path d="M67.15,66.47C67.25,67.03 67.47,67.56 67.79,68.01L68.22,67.33C67.92,67.08 67.65,66.81 67.38,66.53L67.15,66.48L67.15,66.47Z" style="fill:white;fill-rule:nonzero;"/>
    <path d="M71.71,69.65C72.08,69.58 72.42,69.45 72.75,69.29C72.44,69.27 72.13,69.19 71.83,69.12L71.71,69.65Z" style="fill:white;fill-rule:nonzero;"/>
    <path d="M66.13,64.77C66.45,65.42 66.9,65.99 67.38,66.52L68.56,66.79L68.22,67.33C68.74,67.76 69.3,68.13 69.9,68.43C69.86,68.41 69.82,68.39 69.78,68.37L68.77,69C69.22,69.32 69.75,69.54 70.31,69.64L70.05,68.49C70.05,68.49 69.98,68.45 69.94,68.44C70.54,68.73 71.17,68.96 71.82,69.12L72.02,68.23L73.26,69.01C73.1,69.12 72.92,69.2 72.75,69.29C73.5,69.4 74.29,69.39 75.04,69.29L74.86,69C75.49,68.2 75.92,67.28 76.01,66.22L77.96,65.78L76.01,65.34C75.92,64.28 75.49,63.36 74.86,62.56C75.05,62.26 75.73,61.19 75.93,60.86C75.51,61.12 74.65,61.67 74.23,61.93C73.46,61.29 72.51,60.88 71.45,60.79L71.01,58.82L70.57,60.79C69.52,60.88 68.57,61.3 67.81,61.94L66.1,60.86L67.18,62.57C66.66,63.19 66.3,63.95 66.13,64.78L66.13,64.77ZM74.25,63.52C74.57,63.98 74.8,64.51 74.9,65.08L73.47,64.76L74.25,63.52ZM74.9,66.47C74.8,67.04 74.57,67.57 74.25,68.03L73.47,66.79L74.9,66.47ZM73.27,62.54L72.03,63.32L71.71,61.9C72.28,62 72.81,62.22 73.27,62.54ZM70.32,61.9L70,63.32L68.78,62.55C69.23,62.23 69.76,62.01 70.32,61.91L70.32,61.9ZM68.56,64.76L67.15,65.08C67.25,64.52 67.47,63.99 67.79,63.54L68.56,64.76Z" style="fill:white;fill-rule:nonzero;"/>
    <path d="M121.87,23.97C120.49,22.8 118.47,22.2 116.67,22.37C120.61,26.2 106.6,26.87 112.44,23.7C105.95,19.95 98.33,19.17 91.79,15.63C88.95,13.96 86.8,11.72 84.31,9.57C83.38,12.09 85.11,16.48 87.29,18.04C88.82,18.8 90.22,19.85 91.71,20.7C94.96,22.42 95.05,26.59 97.59,28.99C98.15,29.57 98.32,30.22 98.25,30.95C98.19,30.43 97.96,29.94 97.54,29.49C95.98,27.85 94.97,25.86 94.03,23.84C93.83,23.41 93.59,23.25 93.1,23.25L82.02,23.25C81.55,23.25 81.17,23.63 81.17,24.1L81.17,35.96L81.15,35.96C81.1,39.26 81.2,43.68 81.12,46.87C79.46,45.92 76.92,44.6 75.17,43.75L75.17,35.85C75.17,35.85 75.21,35.85 75.17,35.85L75.17,27.95L77.96,23.24L61.09,23.24L62.9,26.3C62.04,29.07 59.11,38.47 58.92,39.06C56.09,39.42 55.11,41.16 54.05,43.59C52.79,46.17 51.07,49.74 50.94,49.99C49.34,52.62 52.38,56.79 53.59,58.73C54.94,60.84 58.03,65.19 63.77,69.5C65.58,72.87 68.7,73.84 71.53,74.22C71.99,74.28 71.53,74.33 71.21,74.37C69.03,74.49 66.76,73.77 63.88,71.68L63.88,87.83L61.09,92.95L77.96,92.95L75.17,87.83L75.17,79.3C75.17,79.3 75.22,79.3 75.17,79.3C75.27,78.77 75.16,76.85 75.2,75.95C79.68,77.86 85.63,79.4 90.79,79.9C88.95,80.4 85.21,79.78 83,79.34C81.76,79.11 80.99,80.38 81.17,81.49C81.18,82.11 81.2,85.2 81.22,88.01C81.24,90.82 83.46,92.95 86.19,92.95L109.64,92.95C112.44,92.95 114.69,90.64 114.61,87.84L114.61,52.99C114.61,50.22 112.35,47.98 109.58,48.02L107.78,48.04C107.78,48.04 97.94,48.03 94.68,48.04L97.35,56.46C98.45,58.38 100.56,59.72 102.75,59.59C103.35,60.12 103.17,60.83 103.17,61.97L103.17,79.65C103.17,80.59 102.4,81.36 101.46,81.36L94.87,81.36C93.98,81.36 93.32,80.77 92.9,80.06C92.92,79.97 92.94,79.89 92.98,79.87C94.19,79.47 95.6,78.84 96.02,77.54C97.21,75.11 98.95,71.43 100.1,69.13C101.65,65.45 96.98,58.73 92.66,55.18L92.66,34.8C93.86,34.79 95.03,34.8 96.2,34.8C95.54,35.58 94.84,36.12 94,36.88C97.3,36.1 100.7,34.54 104.14,35.14C106.44,35.67 106.16,37.52 105.22,38.68C107.97,38.48 109.82,41.98 107.74,43.94C107.2,44.46 106.58,44.9 105.96,45.32C110.67,46.28 114.81,45.34 118.12,41.74C116.4,41.54 114.07,41.55 112.83,40.16C112.68,40 112.71,39.71 112.71,39.71C112.65,39.15 113.23,38.54 113.76,38.15C112.17,37.77 110.05,37.41 109.71,35.52C112.92,35.06 116.8,34.01 119.06,37.07C120.12,38 119.99,39.1 120.31,40.33C120.36,40.32 120.4,40.31 120.45,40.3C120.76,37.45 119.41,33.9 116.43,33.07C114.24,32.37 111.44,32.84 109.96,30.7C109.87,30.56 109.77,30.29 109.82,30.24C110.21,29.88 110.59,29.42 111.07,29.27C111.64,29.1 111.88,29.91 112.19,30.28C113.32,29.55 114.23,28.16 115.72,29.22C116.89,27.95 118.48,27.5 120.1,27.95C122.82,28.37 122.38,31.21 121.77,33.2C124.98,30.98 124.12,26.52 121.88,23.99L121.87,23.97ZM88.68,14.3C86.74,13.03 87.45,13.11 85.67,12.36C85.22,11.76 84.6,11.22 84.51,10.44C84.55,10.44 84.59,10.44 84.63,10.43C86.88,12.32 89.12,14.21 91.35,16.09C91.26,16.07 88.82,14.37 88.68,14.31L88.68,14.3ZM77.45,46.57L77.42,46.57C75.71,45.86 75.59,47.15 75.18,48.03C75.23,47.58 74.97,45.78 75.4,45.37C77.14,44.75 80.79,47.08 81.08,48.92C81.19,52.64 81.08,61.72 81.12,63.34C80.9,60.79 77.61,57.01 75.3,55.74C75.04,55.48 75.18,54.37 75.18,54.25C77.3,55.43 80.98,58.89 80.77,54.23C80.79,50.17 81.37,48.38 77.44,46.56L77.45,46.57ZM60.07,58.23L59.48,59.81L58.89,58.23L57.31,57.64L58.89,57.05L59.48,55.47L60.07,57.05L61.65,57.64L60.07,58.23ZM80.26,72.49C80.63,72.35 81.48,72.04 81.84,71.9L82.43,70.31L83.02,71.9L84.6,72.49L83.02,73.08L82.43,74.66L81.84,73.08C81.48,72.95 80.62,72.63 80.26,72.49ZM92.65,58.72C92.65,59.49 93.17,64.35 93.37,65.06L93.37,65.08C93.71,66.31 93.85,66.98 94.65,67.93C94.03,68.02 93.4,67.98 92.65,67.93L92.65,58.72ZM97.84,66.47C98.68,63.26 94.78,59.22 92.91,56.7C95.74,59.48 100,64.07 99.7,68.03C98.92,70.4 95.89,75.91 95.23,77.52C95.47,75.62 96.91,72.55 97.3,70.5C97.17,70.09 96.72,70.48 96.36,70.52C95.86,70.57 95.98,70.77 95.74,71.14C94.65,73 94.02,74.49 92.54,75.64C89.53,78.36 85.97,77.15 82.19,76.43C85.83,75.75 89.44,73.62 89.92,70.26C89.92,70.1 89.83,70 89.67,69.96C86.89,69.27 83.82,68.01 80.94,66.69C80.69,66.6 80.39,66.51 80.29,66.86C80,70.05 77.73,73.13 73.82,73.79C73.75,73.76 73.69,73.73 73.62,73.71C85.77,68.19 77.08,51.89 66.42,58.52C75.03,53.33 82.47,65.52 75.15,69.33C75.13,69.33 75.14,69.35 75.13,69.35L75.13,70.21C74.78,69.99 74.42,69.75 74.28,69.71C73.93,69.73 73.37,70.3 72.93,70.41C72.53,70.61 71.9,70.69 71.53,70.8C71.34,70.82 71.15,72.18 71.03,72.57C71,72.56 70.97,72.54 70.94,72.53C70.84,72.15 70.65,71.1 70.54,70.88C70.4,70.69 69.8,70.71 69.41,70.54C69.05,70.42 68.71,70.26 68.39,70.06C68.04,69.86 67.83,69.57 67.59,69.75C67.41,69.86 67.07,70.08 66.77,70.27C66.67,70.21 66.56,70.14 66.46,70.08C66.77,69.63 67.31,69.1 66.94,68.7C66.36,68 66.24,67.04 65.92,66.24C65.64,66.11 64.09,65.83 64.11,65.79C64.58,65.56 65.72,65.61 66.08,65.18C65.74,63.51 64.75,62.11 65.01,60.03C65.01,59.85 64.98,59.77 64.89,59.84C62.96,62.04 62.22,64.99 63.08,67.72C61.37,64.12 62.33,59.65 65.53,56.88L64.51,56C62.28,54.06 60.38,52.17 58.83,50.25C56.29,52.32 55.84,57.69 57.03,61.41C53.95,57.12 52.03,50.57 56.42,46.46C56.33,45.76 55.9,44.95 55.85,44.21C55.83,44.16 55.65,43.67 55.63,43.62C54.2,46.19 53.16,49.44 51.81,52.03C51.8,49.94 52.98,47.2 53.84,45.08C55.74,41.6 55.02,40.88 57.87,40.25C58.97,40.14 58.13,40.38 57.82,40.98C55.86,47.16 62.88,53.06 66.94,56.61C73.36,54.1 79.63,58.02 80.35,64.98C80.49,65.35 80.79,65.6 81.11,65.74C84.94,67.09 94.7,72.23 97.8,66.48L97.84,66.47ZM103.74,22.61C104.54,22.29 105.98,22.8 108.08,24.02C107.17,24.25 106.31,23.36 105.44,23.96C105.2,23.18 104.8,22.72 103.74,22.61ZM112.37,39.27C112.35,39.53 112.37,39.75 112.43,39.95C112.43,39.95 112.41,40.49 113.56,41.36L113.98,41.66C113.17,41.83 110.92,40.08 112.38,39.28L112.37,39.27ZM109.6,36.2C109.94,36.75 110.29,36.91 110.63,37.38C109.92,37.18 108.99,36.18 108.98,35.39C108.87,34.69 109.6,35.13 109.96,35.18C109.31,35.25 109.14,35.45 109.61,36.21L109.6,36.2ZM109.95,31.72C110.83,32.89 112.17,32.68 113.5,32.92C115.23,33.35 117.76,33.26 118.62,35.09C116.18,33.44 113.21,33.36 110.35,33.14C108.82,33.08 108.91,31.63 109.22,30.51C109.28,30.51 109.33,30.49 109.38,30.47C109.58,30.72 109.76,31.45 109.95,31.71L109.95,31.72ZM108.98,25.88C107.86,25.89 106.58,25.29 105.85,24.29C107.1,24.66 109.17,24.33 109.86,25.57C109.82,26.03 109.31,25.88 108.98,25.88ZM114.29,28.41C114.64,27.99 115.15,27.97 115.77,28.41L114.29,28.41ZM121.69,25.54C120.88,24.56 119.85,23.9 118.63,23.52C118.28,23.41 117.81,23.43 117.78,22.89C120.14,22.61 122.89,24.83 123.01,27.25C122.52,26.62 122.13,26.06 121.7,25.54L121.69,25.54Z" style="fill:white;fill-rule:nonzero;"/>
</svg>
