<svg width="0" height="0" class="hidden">
  <symbol version="1.0" xmlns="http://www.w3.org/2000/svg" preserveAspectRatio="xMidYMid meet"
          viewBox="0 0 512.000000 512.000000" id="illusion">
    <g transform="translate(0.000000,512.000000) scale(0.100000,-0.100000)" fill="currentColor" stroke="none">
      <path d="M2270 3355 c-320 -47 -606 -151 -880 -321 -236 -146 -604 -478 -795
-719 -103 -129 -237 -340 -204 -320 8 5 77 59 154 121 178 141 386 295 395
292 4 -2 49 -47 100 -101 l93 -98 -12 -142 c-7 -78 -15 -162 -18 -186 l-6 -44
133 90 133 91 81 -53 c44 -28 96 -60 114 -71 18 -10 32 -27 33 -39 1 -11 4
-78 8 -150 l6 -130 78 105 c50 66 85 104 95 103 10 -1 64 -16 122 -34 58 -17
110 -33 116 -35 7 -1 17 -47 24 -106 23 -192 15 -189 95 -43 68 123 71 126 99
121 16 -3 61 -6 101 -6 l73 0 53 -157 53 -158 55 170 56 169 95 23 c52 12 102
22 111 23 11 0 37 -45 83 -141 37 -78 69 -140 71 -137 3 2 18 76 35 164 16 87
32 168 35 180 3 14 25 29 67 48 l63 27 35 -38 c19 -21 58 -65 86 -98 l52 -60
7 139 c4 77 10 149 14 162 3 13 50 62 104 109 l98 86 103 -95 c57 -53 106 -96
110 -96 3 0 6 97 6 216 l0 215 28 35 c15 18 30 34 34 34 3 0 37 -18 75 -40
258 -148 496 -140 657 23 126 128 161 339 82 496 -42 82 -192 201 -275 217
-43 9 -40 -5 15 -73 56 -68 99 -156 115 -232 26 -128 -47 -251 -149 -251 -76
0 -159 49 -333 197 -63 55 -147 120 -186 146 -259 172 -651 315 -1008 368
-152 22 -448 24 -585 4z m646 -406 c-12 -121 -105 -258 -208 -308 -159 -77
-340 -27 -442 122 -40 58 -76 159 -76 213 l0 34 366 0 367 0 -7 -61z m-972
-131 c57 -266 223 -467 446 -539 80 -26 221 -29 296 -7 164 50 307 175 388
339 26 52 56 133 68 180 l21 87 42 -15 c107 -36 445 -215 558 -295 l28 -20
-63 -50 c-264 -207 -608 -366 -938 -432 -507 -102 -1073 -25 -1510 206 -104
55 -280 167 -280 179 0 10 215 146 348 219 139 77 332 161 459 199 54 16 103
30 109 30 6 1 19 -36 28 -81z"></path>
    </g>
  </symbol>
  <symbol version="1.0" xmlns="http://www.w3.org/2000/svg" preserveAspectRatio="xMidYMid meet"
          viewBox="0 0 512.000000 512.000000" id="evocation">
    <g transform="translate(0.000000,512.000000) scale(0.100000,-0.100000)" fill="currentColor" stroke="none">
      <path d="M2541 4494 c-26 -145 -71 -489 -91 -689 -12 -115 -23 -211 -24 -212
-1 -2 -47 -7 -102 -13 -54 -5 -115 -12 -136 -16 l-36 -5 -177 346 c-97 190
-179 345 -181 342 -2 -2 7 -167 21 -368 14 -200 25 -371 25 -380 0 -10 -11
-20 -27 -24 -16 -3 -61 -20 -101 -36 l-73 -29 -171 155 c-94 85 -172 154 -174
152 -2 -1 19 -102 46 -222 l49 -220 -37 -30 c-76 -61 -186 -172 -228 -231 -62
-86 -112 -198 -131 -291 l-17 -80 -110 -11 c-175 -18 -500 -64 -509 -72 -4 -3
54 -14 130 -24 152 -19 472 -56 489 -56 6 0 16 -25 23 -56 17 -76 89 -216 150
-291 l50 -62 -202 -308 c-112 -170 -207 -314 -211 -321 -4 -7 46 22 111 65 65
42 216 141 337 219 l218 143 82 -44 c44 -24 106 -53 136 -66 30 -12 56 -23 58
-24 1 -1 -18 -96 -43 -210 -26 -113 -45 -209 -42 -211 2 -2 88 71 190 164
l187 169 70 -13 c39 -8 134 -20 212 -29 148 -15 158 -19 158 -67 0 -66 84
-656 95 -666 3 -3 7 -3 9 -1 7 7 54 324 77 524 12 105 23 191 23 191 1 1 58 7
127 14 69 6 167 19 217 29 l91 18 187 -169 c102 -93 188 -168 189 -166 2 2
-16 93 -40 203 -50 224 -50 225 -32 225 7 0 70 29 140 64 l127 63 327 -213
c180 -117 329 -212 331 -210 2 2 -90 143 -203 314 l-206 310 56 73 c64 85 116
187 141 277 10 34 22 62 28 62 10 0 226 25 524 61 56 7 102 15 102 19 0 7
-230 39 -465 66 -77 9 -147 19 -155 23 -8 4 -19 36 -26 73 -33 176 -164 373
-333 498 -33 25 -60 50 -60 55 0 6 21 107 48 225 26 118 47 217 45 219 -1 2
-80 -67 -175 -153 -122 -111 -178 -155 -188 -150 -9 4 -53 21 -98 38 l-83 31
1 45 c0 25 10 198 23 385 13 187 23 341 22 342 -1 1 -82 -154 -180 -345 -98
-191 -180 -348 -181 -349 -3 -5 -266 25 -272 31 -3 3 -12 72 -20 153 -27 296
-96 790 -113 806 -4 5 -13 -22 -19 -59z m-136 -1351 c-3 -65 -8 -184 -11 -265
l-6 -148 -67 0 c-116 0 -549 -20 -770 -35 -118 -8 -217 -13 -219 -10 -3 2 10
34 27 70 117 236 480 430 921 490 52 7 103 13 112 14 16 1 17 -9 13 -116z
m505 91 c405 -67 740 -255 848 -477 19 -38 32 -70 30 -73 -3 -2 -100 3 -217
11 -117 8 -357 20 -532 27 l-319 12 0 165 c0 92 -3 210 -7 264 l-6 99 59 -7
c32 -4 97 -13 144 -21z m-840 -824 c179 -7 326 -13 326 -14 4 -4 25 -469 21
-472 -2 -3 -47 0 -98 7 -431 51 -785 220 -931 443 -21 33 -38 62 -38 65 0 3
89 1 197 -6 109 -6 344 -17 523 -23z m1700 32 c0 -5 -23 -41 -50 -80 -158
-225 -515 -387 -962 -437 l-58 -6 0 53 c0 57 20 421 23 424 1 1 153 7 337 14
272 10 668 32 703 39 4 0 7 -3 7 -7z"></path>
    </g>
  </symbol>
  <symbol version="1.0" xmlns="http://www.w3.org/2000/svg" preserveAspectRatio="xMidYMid meet"
          viewBox="0 0 512.000000 512.000000" id="enchantment">
    <g transform="translate(0.000000,512.000000) scale(0.100000,-0.100000)" fill="currentColor" stroke="none">
      <path d="M1911 4358 c-77 -40 -81 -57 -81 -320 l0 -228 -355 0 c-386 0 -390
-1 -434 -56 -44 -56 -36 -136 20 -190 l30 -29 370 -3 369 -3 0 -1260 c0 -1381
-4 -1299 61 -1353 30 -25 39 -28 91 -24 74 5 112 38 127 110 7 32 11 319 11
826 0 667 2 786 15 837 25 95 51 142 109 200 92 92 209 131 251 85 17 -18 17
-28 7 -113 -22 -179 -122 -1140 -119 -1143 2 -2 140 189 308 423 361 507 469
652 504 677 15 10 44 20 65 23 32 5 40 2 50 -17 51 -95 -88 -347 -479 -870
-97 -130 -166 -246 -190 -320 -56 -177 -11 -381 111 -503 173 -173 449 -181
691 -20 86 57 289 251 358 343 62 81 124 205 145 290 37 147 0 301 -94 393
-68 67 -129 92 -222 91 -123 -1 -215 -58 -269 -166 -34 -68 -37 -93 -17 -141
23 -54 59 -80 118 -84 65 -5 110 19 135 72 41 85 96 11 74 -98 -17 -80 -74
-168 -184 -283 -170 -178 -276 -245 -391 -246 -169 -1 -245 146 -162 316 16
32 96 148 179 259 353 474 488 723 488 906 0 91 -6 119 -37 183 -67 133 -207
205 -351 179 -134 -25 -252 -114 -367 -278 -31 -45 -60 -85 -65 -87 -4 -3 -3
28 2 67 13 108 5 204 -22 260 -33 66 -101 133 -169 165 -49 23 -70 27 -147 26
-99 0 -175 -23 -271 -83 -28 -17 -53 -31 -55 -31 -2 0 -3 87 -2 192 l2 193
400 5 400 5 30 29 c56 54 64 134 20 190 -40 51 -39 51 -456 56 l-393 5 -2 232
c-3 216 -4 233 -24 259 -52 71 -114 88 -183 52z"></path>
    </g>
  </symbol>
  <symbol version="1.0" xmlns="http://www.w3.org/2000/svg" preserveAspectRatio="xMidYMid meet"
          viewBox="0 0 512.000000 512.000000" id="divination">
    <g transform="translate(0.000000,512.000000) scale(0.100000,-0.100000)" fill="currentColor" stroke="none">
      <path d="M3435 4290 c-131 -52 -177 -151 -113 -243 41 -58 118 -73 188 -37 45
23 59 24 95 8 31 -14 43 -52 24 -75 -33 -39 -94 -54 -266 -63 -316 -19 -501
-71 -686 -194 -281 -187 -424 -519 -366 -852 l11 -63 -54 -68 c-153 -192 -240
-383 -293 -647 -30 -151 -41 -257 -60 -566 -8 -142 -21 -270 -30 -305 -48
-183 -174 -241 -273 -125 -55 63 -95 236 -116 490 l-13 172 -37 36 c-34 34
-41 37 -96 37 -56 0 -62 -3 -97 -38 l-38 -38 1 -142 c1 -233 40 -437 111 -585
202 -425 712 -348 834 125 13 53 24 152 34 308 33 523 72 727 178 928 190 360
635 619 1182 687 50 6 180 10 290 9 217 -4 224 -2 269 52 21 25 26 41 26 84 0
46 -5 59 -31 90 -39 44 -72 53 -239 61 -398 19 -860 -92 -1186 -285 -94 -56
-99 -58 -102 -36 -2 12 4 52 12 88 41 174 151 310 317 391 129 62 233 85 468
101 266 18 356 48 448 148 65 70 86 120 91 212 5 105 -20 175 -89 246 -72 74
-142 103 -254 106 -70 2 -101 -1 -140 -17z"></path>
    </g>
  </symbol>
  <symbol version="1.0" xmlns="http://www.w3.org/2000/svg" preserveAspectRatio="xMidYMid meet"
          viewBox="0 0 512.000000 512.000000" id="conjuration">
    <g transform="translate(0.000000,512.000000) scale(0.100000,-0.100000)" fill="currentColor" stroke="none">
      <path d="M1077 4373 c-12 -12 -7 -169 8 -256 26 -150 49 -203 273 -627 44 -84
535 -1157 580 -1269 4 -12 -6 -13 -59 -8 -111 12 -214 77 -281 177 -28 43 -43
13 -43 -88 0 -102 21 -155 86 -220 75 -74 207 -126 354 -139 l70 -6 241 -536
c146 -324 246 -536 255 -536 8 0 125 248 297 630 156 346 285 631 287 633 8 8
144 -27 223 -58 44 -17 108 -48 141 -70 90 -59 101 -53 71 35 -44 127 -134
243 -246 317 -35 23 -64 46 -64 51 0 23 417 932 513 1117 61 118 130 253 154
300 76 155 113 301 113 458 0 164 -16 146 -151 -167 -76 -175 -112 -238 -218
-378 -131 -173 -146 -196 -236 -358 -94 -170 -118 -205 -185 -273 -107 -106
-266 -159 -449 -149 -118 7 -206 28 -433 106 -185 63 -240 77 -358 92 -219 26
-287 81 -437 356 -41 76 -114 192 -162 258 -112 152 -127 179 -201 354 -72
170 -117 261 -128 261 -5 0 -12 -3 -15 -7z m1131 -1625 c26 -6 107 -33 179
-60 176 -64 283 -82 438 -74 66 3 133 9 148 12 l28 7 -43 -87 c-42 -85 -43
-86 -79 -86 -89 0 -237 -37 -462 -117 -71 -25 -130 -43 -132 -42 -6 7 -207
412 -216 436 -8 22 -7 23 42 23 27 0 71 -5 97 -12z m522 -653 c0 -3 -39 -83
-86 -177 l-86 -173 -65 129 c-35 70 -62 130 -60 133 7 6 270 92 285 93 6 0 12
-2 12 -5z"></path>
    </g>
  </symbol>
  <symbol version="1.0" xmlns="http://www.w3.org/2000/svg" preserveAspectRatio="xMidYMid meet"
          viewBox="0 0 512.000000 512.000000" id="abjuration">
    <g transform="translate(0.000000,512.000000) scale(0.100000,-0.100000)" fill="currentColor" stroke="none">
      <path d="M1645 4324 c-43 -11 -95 -38 -92 -48 2 -6 32 -14 68 -17 100 -9 162
-53 189 -135 22 -65 7 -137 -80 -374 -129 -357 -168 -535 -157 -725 25 -417
341 -740 755 -772 45 -3 83 -6 84 -7 1 -1 4 -72 7 -158 7 -175 9 -168 -62
-168 -103 0 -537 -81 -537 -100 0 -20 350 -94 513 -109 54 -4 100 -10 102 -12
5 -5 36 -322 32 -326 -2 -1 -57 -7 -123 -13 -186 -17 -524 -82 -524 -100 0 -9
165 -53 275 -74 93 -18 205 -32 322 -42 l81 -6 7 -47 c24 -173 49 -310 54
-306 4 2 20 82 36 178 l29 175 91 6 c49 4 137 14 195 22 131 18 404 84 393 95
-24 24 -362 86 -575 105 -66 5 -68 7 -68 32 1 52 28 293 33 299 3 3 46 9 94
14 48 5 120 13 158 19 108 16 367 82 357 92 -23 23 -401 92 -546 100 l-50 3 3
155 c1 85 5 158 7 162 3 5 24 8 47 8 91 0 229 38 337 91 90 45 117 64 196 143
172 172 246 352 245 602 0 195 -28 303 -206 803 -62 173 -48 272 48 338 31 22
54 28 108 31 52 3 69 8 69 19 0 23 -69 46 -140 47 -82 0 -144 -28 -199 -91
-90 -102 -92 -195 -8 -503 73 -267 90 -360 90 -500 0 -213 -53 -350 -188 -486
-60 -61 -98 -90 -155 -118 -76 -37 -224 -76 -237 -62 -4 4 -11 94 -15 199 -8
234 -21 397 -54 672 -27 234 -82 576 -93 588 -8 8 -50 -235 -75 -443 -35 -279
-66 -685 -66 -870 0 -133 -5 -150 -39 -150 -49 0 -145 30 -227 70 -200 98
-327 300 -341 541 -10 162 10 273 118 669 52 192 43 305 -35 397 -50 59 -180
104 -251 87z"></path>
    </g>
  </symbol>
  <symbol version="1.0" xmlns="http://www.w3.org/2000/svg" preserveAspectRatio="xMidYMid meet"
          viewBox="0 0 512.000000 512.000000" id="transmutation">
    <g transform="translate(0.000000,512.000000) scale(0.100000,-0.100000)" fill="currentColor" stroke="none">
      <path
        d="M1473 3908 c-26 -29 -193 -256 -193 -263 0 -3 113 -5 250 -5 l250 0 0 -754 0 -755 -86 -133 c-141 -216 -179 -314 -154 -403 12 -41 45 -81 263 -309 137 -143 254 -263 259 -265 7 -2 9 419 6 1308 l-4 1311 441 0 442 0 6 -1121 7 -1122 -95 -113 c-52 -62 -95 -116 -95 -119 0 -3 149 -5 330 -5 182 0 330 2 330 5 0 3 -40 55 -90 116 l-90 111 0 732 c0 403 -3 909 -7 1125 l-6 391 269 -2 c247 -3 269 -4 272 -21 2 -11 -25 -48 -73 -99 -47 -51 -88 -108 -108 -148 -29 -60 -32 -73 -32 -165 0 -92 3 -105 32 -167 40 -85 106 -151 191 -191 61 -29 76 -32 162 -32 86 0 101 3 162 32 171 81 260 263 173 353 -74 77 -180 59 -236 -39 -26 -46 -57 -65 -105 -64 -61 2 -112 66 -98 126 3 16 39 65 80 110 101 111 139 188 139 282 -1 156 -106 274 -270 304 -40 8 -414 11 -1180 11 l-1122 0 -20 -22z"></path>
    </g>
  </symbol>
  <symbol version="1.0" xmlns="http://www.w3.org/2000/svg" preserveAspectRatio="xMidYMid meet"
          viewBox="0 0 512.000000 512.000000" id="necromancy">
    <g transform="translate(0.000000,512.000000) scale(0.100000,-0.100000)" fill="currentColor" stroke="none">
      <path d="M2350 3629 c-485 -53 -830 -278 -946 -614 -24 -69 -28 -96 -28 -195
-1 -101 2 -125 27 -196 15 -45 53 -124 84 -175 84 -141 93 -165 93 -244 0
-214 -217 -348 -407 -252 -89 45 -139 125 -152 241 -5 40 -16 85 -26 100 -52
79 -186 72 -230 -13 -33 -64 -10 -225 47 -335 18 -34 64 -92 103 -132 118
-120 250 -170 420 -161 288 15 514 248 519 536 2 136 -27 220 -161 461 -54 96
-63 162 -38 256 55 202 274 368 568 428 192 40 461 40 645 1 225 -47 416 -157
509 -293 51 -74 73 -144 73 -227 0 -77 -11 -108 -73 -214 -101 -172 -137 -275
-137 -396 0 -150 56 -283 164 -390 80 -80 162 -127 257 -150 335 -79 647 148
684 498 13 116 -41 187 -140 187 -41 0 -52 -5 -85 -37 -33 -34 -37 -45 -43
-106 -11 -123 -72 -217 -167 -261 -64 -29 -180 -29 -236 1 -96 51 -150 128
-160 229 -8 80 5 120 81 249 94 160 117 226 122 360 7 167 -34 301 -132 435
-145 198 -413 341 -740 395 -113 19 -383 27 -495 14z"></path>
    </g>
  </symbol>
</svg>
